<mxfile host="Electron" modified="2023-05-09T00:52:44.342Z" agent="Mozilla/5.0 (Windows NT 10.0; Win64; x64) AppleWebKit/537.36 (KHTML, like Gecko) draw.io/21.2.8 Chrome/112.0.5615.165 Electron/24.2.0 Safari/537.36" etag="TLBIVfiQFIob-84JgftI" version="21.2.8" type="device">
  <diagram name="Página-1" id="dDWxkbAtystPN4gEsVZi">
    <mxGraphModel dx="1098" dy="648" grid="1" gridSize="10" guides="1" tooltips="1" connect="1" arrows="1" fold="1" page="1" pageScale="1" pageWidth="827" pageHeight="1169" math="0" shadow="0">
      <root>
        <mxCell id="0" />
        <mxCell id="1" parent="0" />
        <mxCell id="lRGFS76Ub7m47JitW-qN-13" value="TELA INICIAL DO SITE" style="ellipse;whiteSpace=wrap;html=1;" parent="1" vertex="1">
          <mxGeometry x="230" width="120" height="80" as="geometry" />
        </mxCell>
        <mxCell id="lRGFS76Ub7m47JitW-qN-14" value="DISCIPLINAS/&lt;br&gt;SIMULADOS" style="ellipse;whiteSpace=wrap;html=1;" parent="1" vertex="1">
          <mxGeometry x="230" y="505" width="120" height="80" as="geometry" />
        </mxCell>
        <mxCell id="lRGFS76Ub7m47JitW-qN-15" value="LOGIN/CADASTRO" style="ellipse;whiteSpace=wrap;html=1;" parent="1" vertex="1">
          <mxGeometry x="230" y="250" width="120" height="80" as="geometry" />
        </mxCell>
        <mxCell id="lRGFS76Ub7m47JitW-qN-16" value="ACESSAR&lt;br&gt;DÚVIDAS" style="ellipse;whiteSpace=wrap;html=1;" parent="1" vertex="1">
          <mxGeometry x="230" y="120" width="120" height="80" as="geometry" />
        </mxCell>
        <mxCell id="lRGFS76Ub7m47JitW-qN-17" value="ACESSAR ÁREA DE&lt;br&gt;ALUNO" style="ellipse;whiteSpace=wrap;html=1;" parent="1" vertex="1">
          <mxGeometry x="230" y="380" width="120" height="80" as="geometry" />
        </mxCell>
        <mxCell id="lRGFS76Ub7m47JitW-qN-18" value="ACESSAR&lt;br&gt;&amp;nbsp;DICAS REDAÇÃO/&lt;br&gt;VÍDEO AULAS" style="ellipse;whiteSpace=wrap;html=1;" parent="1" vertex="1">
          <mxGeometry x="230" y="630" width="120" height="80" as="geometry" />
        </mxCell>
        <mxCell id="lRGFS76Ub7m47JitW-qN-19" value="LOGOUT" style="ellipse;whiteSpace=wrap;html=1;" parent="1" vertex="1">
          <mxGeometry x="230" y="780" width="120" height="80" as="geometry" />
        </mxCell>
        <mxCell id="lRGFS76Ub7m47JitW-qN-21" value="GERAR RESULTADO&lt;br&gt;SIMULADO" style="ellipse;whiteSpace=wrap;html=1;" parent="1" vertex="1">
          <mxGeometry x="420" y="505" width="120" height="80" as="geometry" />
        </mxCell>
        <mxCell id="lRGFS76Ub7m47JitW-qN-22" value="ADMIN&lt;br&gt;" style="shape=umlActor;verticalLabelPosition=bottom;verticalAlign=top;html=1;outlineConnect=0;" parent="1" vertex="1">
          <mxGeometry x="770" y="350" width="30" height="60" as="geometry" />
        </mxCell>
        <mxCell id="lRGFS76Ub7m47JitW-qN-23" value="ALUNO&lt;br&gt;" style="shape=umlActor;verticalLabelPosition=bottom;verticalAlign=top;html=1;outlineConnect=0;" parent="1" vertex="1">
          <mxGeometry x="40" y="350" width="30" height="60" as="geometry" />
        </mxCell>
        <mxCell id="lRGFS76Ub7m47JitW-qN-29" value="" style="endArrow=none;html=1;rounded=0;exitX=0.5;exitY=0.5;exitDx=0;exitDy=0;exitPerimeter=0;" parent="1" source="lRGFS76Ub7m47JitW-qN-23" edge="1">
          <mxGeometry width="50" height="50" relative="1" as="geometry">
            <mxPoint x="180" y="470" as="sourcePoint" />
            <mxPoint x="230" y="420" as="targetPoint" />
          </mxGeometry>
        </mxCell>
        <mxCell id="lRGFS76Ub7m47JitW-qN-31" value="" style="endArrow=none;html=1;rounded=0;" parent="1" edge="1">
          <mxGeometry width="50" height="50" relative="1" as="geometry">
            <mxPoint x="60" y="380" as="sourcePoint" />
            <mxPoint x="230" y="290" as="targetPoint" />
          </mxGeometry>
        </mxCell>
        <mxCell id="lRGFS76Ub7m47JitW-qN-33" value="" style="endArrow=none;html=1;rounded=0;exitX=0.75;exitY=0.1;exitDx=0;exitDy=0;exitPerimeter=0;" parent="1" source="lRGFS76Ub7m47JitW-qN-23" edge="1">
          <mxGeometry width="50" height="50" relative="1" as="geometry">
            <mxPoint x="180" y="220" as="sourcePoint" />
            <mxPoint x="230" y="170" as="targetPoint" />
          </mxGeometry>
        </mxCell>
        <mxCell id="lRGFS76Ub7m47JitW-qN-34" value="" style="endArrow=none;html=1;rounded=0;entryX=1;entryY=1;entryDx=0;entryDy=0;entryPerimeter=0;" parent="1" source="lRGFS76Ub7m47JitW-qN-14" target="lRGFS76Ub7m47JitW-qN-23" edge="1">
          <mxGeometry width="50" height="50" relative="1" as="geometry">
            <mxPoint x="159.28932188134524" y="595" as="sourcePoint" />
            <mxPoint x="159.28932188134524" y="545" as="targetPoint" />
          </mxGeometry>
        </mxCell>
        <mxCell id="lRGFS76Ub7m47JitW-qN-35" value="" style="endArrow=none;html=1;rounded=0;" parent="1" edge="1">
          <mxGeometry width="50" height="50" relative="1" as="geometry">
            <mxPoint x="70" y="410" as="sourcePoint" />
            <mxPoint x="230" y="670" as="targetPoint" />
          </mxGeometry>
        </mxCell>
        <mxCell id="lRGFS76Ub7m47JitW-qN-38" value="" style="endArrow=none;dashed=1;html=1;dashPattern=1 3;strokeWidth=2;rounded=0;" parent="1" source="lRGFS76Ub7m47JitW-qN-14" edge="1">
          <mxGeometry width="50" height="50" relative="1" as="geometry">
            <mxPoint x="350" y="595" as="sourcePoint" />
            <mxPoint x="420.71067811865476" y="545" as="targetPoint" />
          </mxGeometry>
        </mxCell>
        <mxCell id="lRGFS76Ub7m47JitW-qN-39" value="" style="endArrow=none;html=1;rounded=0;entryX=0.5;entryY=0.5;entryDx=0;entryDy=0;entryPerimeter=0;" parent="1" target="lRGFS76Ub7m47JitW-qN-22" edge="1">
          <mxGeometry width="50" height="50" relative="1" as="geometry">
            <mxPoint x="540" y="540" as="sourcePoint" />
            <mxPoint x="590" y="490" as="targetPoint" />
          </mxGeometry>
        </mxCell>
        <mxCell id="lRGFS76Ub7m47JitW-qN-41" value="" style="endArrow=none;html=1;rounded=0;exitX=0.25;exitY=0.1;exitDx=0;exitDy=0;exitPerimeter=0;" parent="1" source="lRGFS76Ub7m47JitW-qN-23" edge="1">
          <mxGeometry width="50" height="50" relative="1" as="geometry">
            <mxPoint x="190" y="110" as="sourcePoint" />
            <mxPoint x="240" y="60" as="targetPoint" />
          </mxGeometry>
        </mxCell>
        <mxCell id="lRGFS76Ub7m47JitW-qN-42" value="" style="endArrow=none;html=1;rounded=0;" parent="1" target="lRGFS76Ub7m47JitW-qN-22" edge="1">
          <mxGeometry width="50" height="50" relative="1" as="geometry">
            <mxPoint x="340" y="60" as="sourcePoint" />
            <mxPoint x="390" y="10" as="targetPoint" />
          </mxGeometry>
        </mxCell>
        <mxCell id="lRGFS76Ub7m47JitW-qN-43" value="" style="endArrow=none;html=1;rounded=0;exitX=0;exitY=1;exitDx=0;exitDy=0;exitPerimeter=0;" parent="1" source="lRGFS76Ub7m47JitW-qN-23" edge="1">
          <mxGeometry width="50" height="50" relative="1" as="geometry">
            <mxPoint x="180" y="860" as="sourcePoint" />
            <mxPoint x="230" y="810" as="targetPoint" />
          </mxGeometry>
        </mxCell>
      </root>
    </mxGraphModel>
  </diagram>
</mxfile>
